<?xml version="1.0" encoding="UTF-8" standalone="no"?>
<!DOCTYPE svg PUBLIC "-//W3C//DTD SVG 1.1//EN"
 "http://www.w3.org/Graphics/SVG/1.1/DTD/svg11.dtd">
<!-- Generated by graphviz version 8.0.5 (0)
 -->
<!-- Title: DataModel Pages: 1 -->
<svg width="688pt" height="327pt"
 viewBox="0.00 0.00 688.00 327.00" xmlns="http://www.w3.org/2000/svg" xmlns:xlink="http://www.w3.org/1999/xlink">
<g id="graph0" class="graph" transform="scale(1 1) rotate(0) translate(4 323)">
<title>DataModel</title>
<polygon fill="white" stroke="none" points="-4,4 -4,-323 684,-323 684,4 -4,4"/>
<g id="clust1" class="cluster">
<title>cluster_Auth</title>
<polygon fill="none" stroke="black" stroke-dasharray="1,5" points="8,-122 8,-215 129.5,-215 129.5,-122 8,-122"/>
<text text-anchor="middle" x="68.75" y="-197.7" font-family="Times,serif" font-size="14.00">Auth</text>
</g>
<g id="clust2" class="cluster">
<title>cluster_TaskManagement</title>
<polygon fill="none" stroke="black" stroke-dasharray="1,5" points="149.5,-135 149.5,-298 354.5,-298 354.5,-135 149.5,-135"/>
<text text-anchor="middle" x="252" y="-280.7" font-family="Times,serif" font-size="14.00">Task Manager</text>
</g>
<g id="clust3" class="cluster">
<title>cluster_TaskBilling</title>
<polygon fill="none" stroke="black" stroke-dasharray="1,5" points="374.5,-8 374.5,-311 672,-311 672,-8 374.5,-8"/>
<text text-anchor="middle" x="523.25" y="-293.7" font-family="Times,serif" font-size="14.00">Task Billing</text>
</g>
<!-- Bird -->
<g id="node1" class="node">
<title>Bird</title>
<polygon fill="none" stroke="black" points="16,-130.75 16,-181.25 121.5,-181.25 121.5,-130.75 16,-130.75"/>
<text text-anchor="middle" x="68.75" y="-163.95" font-family="Times,serif" font-size="14.00">Bird</text>
<polyline fill="none" stroke="black" points="16,-156 121.5,-156"/>
<text text-anchor="middle" x="45" y="-138.7" font-family="Times,serif" font-size="14.00">Name</text>
<polyline fill="none" stroke="black" points="74,-130.75 74,-156"/>
<text text-anchor="middle" x="97.75" y="-138.7" font-family="Times,serif" font-size="14.00">Role</text>
</g>
<!-- Task -->
<g id="node2" class="node">
<title>Task</title>
<polygon fill="none" stroke="black" points="157.5,-213.75 157.5,-264.25 346.5,-264.25 346.5,-213.75 157.5,-213.75"/>
<text text-anchor="middle" x="252" y="-246.95" font-family="Times,serif" font-size="14.00">Task</text>
<polyline fill="none" stroke="black" points="157.5,-239 346.5,-239"/>
<text text-anchor="middle" x="180.88" y="-221.7" font-family="Times,serif" font-size="14.00">Text</text>
<polyline fill="none" stroke="black" points="204.25,-213.75 204.25,-239"/>
<text text-anchor="middle" x="244.12" y="-221.7" font-family="Times,serif" font-size="14.00">Assignee</text>
<polyline fill="none" stroke="black" points="284,-213.75 284,-239"/>
<text text-anchor="middle" x="315.25" y="-221.7" font-family="Times,serif" font-size="14.00">Status</text>
</g>
<!-- Bird&#45;&gt;Task -->
<g id="edge1" class="edge">
<title>Bird:x&#45;&gt;Task</title>
<path fill="none" stroke="black" stroke-dasharray="5,2" d="M132.96,-172.86C139.51,-180.02 137.59,-195.41 149.5,-204 154.49,-207.6 159.88,-210.85 165.48,-213.79"/>
<polygon fill="black" stroke="black" points="134.34,-169.26 123.75,-169 131.87,-175.81 134.34,-169.26"/>
</g>
<!-- WorkingBird -->
<g id="node3" class="node">
<title>WorkingBird</title>
<polygon fill="none" stroke="black" points="199,-143.75 199,-194.25 305,-194.25 305,-143.75 199,-143.75"/>
<text text-anchor="middle" x="252" y="-176.95" font-family="Times,serif" font-size="14.00">WorkingBird</text>
<polyline fill="none" stroke="black" points="199,-169 305,-169"/>
<text text-anchor="middle" x="228" y="-151.7" font-family="Times,serif" font-size="14.00">Name</text>
<polyline fill="none" stroke="black" points="257,-143.75 257,-169"/>
<text text-anchor="middle" x="280.75" y="-151.7" font-family="Times,serif" font-size="14.00">Role</text>
</g>
<!-- Bird&#45;&gt;WorkingBird -->
<g id="edge2" class="edge">
<title>Bird:x&#45;&gt;WorkingBird</title>
<path fill="none" stroke="black" stroke-dasharray="5,2" d="M133.51,-169C155.68,-169 179.13,-169 199.21,-169"/>
<polygon fill="black" stroke="black" points="133.75,-165.5 123.75,-169 133.75,-172.5 133.75,-165.5"/>
</g>
<!-- Balance -->
<g id="node5" class="node">
<title>Balance</title>
<polygon fill="none" stroke="black" points="467.88,-156.75 467.88,-207.25 578.62,-207.25 578.62,-156.75 467.88,-156.75"/>
<text text-anchor="middle" x="523.25" y="-189.95" font-family="Times,serif" font-size="14.00">BirdBalance</text>
<polyline fill="none" stroke="black" points="467.88,-182 578.62,-182"/>
<text text-anchor="middle" x="491.25" y="-164.7" font-family="Times,serif" font-size="14.00">Bird</text>
<polyline fill="none" stroke="black" points="514.62,-156.75 514.62,-182"/>
<text text-anchor="middle" x="546.62" y="-164.7" font-family="Times,serif" font-size="14.00">Money</text>
</g>
<!-- Bird&#45;&gt;Balance -->
<g id="edge3" class="edge">
<title>Bird:x&#45;&gt;Balance</title>
<path fill="none" stroke="black" stroke-dasharray="5,2" d="M132.67,-164.92C139.35,-156.69 135.46,-138.28 149.5,-131 230.37,-89.03 268.52,-100.84 354.5,-131 365.24,-134.77 364.27,-142.01 374.5,-147 403.76,-161.27 439.18,-169.92 468,-175.04"/>
<polygon fill="black" stroke="black" points="131.66,-161.96 123.75,-169 134.33,-168.43 131.66,-161.96"/>
</g>
<!-- TaskPrice -->
<g id="node4" class="node">
<title>TaskPrice</title>
<polygon fill="none" stroke="black" points="443,-226.75 443,-277.25 603.5,-277.25 603.5,-226.75 443,-226.75"/>
<text text-anchor="middle" x="523.25" y="-259.95" font-family="Times,serif" font-size="14.00">TaskPrice</text>
<polyline fill="none" stroke="black" points="443,-252 603.5,-252"/>
<text text-anchor="middle" x="467.12" y="-234.7" font-family="Times,serif" font-size="14.00">Task</text>
<polyline fill="none" stroke="black" points="491.25,-226.75 491.25,-252"/>
<text text-anchor="middle" x="512" y="-234.7" font-family="Times,serif" font-size="14.00">Fee</text>
<polyline fill="none" stroke="black" points="532.75,-226.75 532.75,-252"/>
<text text-anchor="middle" x="568.12" y="-234.7" font-family="Times,serif" font-size="14.00">Reward</text>
</g>
<!-- Task&#45;&gt;TaskPrice -->
<g id="edge4" class="edge">
<title>Task:x&#45;&gt;TaskPrice:task</title>
<path fill="none" stroke="black" stroke-dasharray="5,2" d="M358.65,-251.7C392.29,-249.77 403.76,-239 442.25,-239"/>
<polygon fill="black" stroke="black" points="358.9,-248.22 349,-252 359.09,-255.22 358.9,-248.22"/>
</g>
<!-- MoneyTransaction -->
<g id="node6" class="node">
<title>MoneyTransaction</title>
<polygon fill="none" stroke="black" points="382.5,-86.75 382.5,-137.25 664,-137.25 664,-86.75 382.5,-86.75"/>
<text text-anchor="middle" x="523.25" y="-119.95" font-family="Times,serif" font-size="14.00">MoneyTransaction</text>
<polyline fill="none" stroke="black" points="382.5,-112 664,-112"/>
<text text-anchor="middle" x="405.88" y="-94.7" font-family="Times,serif" font-size="14.00">Bird</text>
<polyline fill="none" stroke="black" points="429.25,-86.75 429.25,-112"/>
<text text-anchor="middle" x="477" y="-94.7" font-family="Times,serif" font-size="14.00">Timestamp</text>
<polyline fill="none" stroke="black" points="524.75,-86.75 524.75,-112"/>
<text text-anchor="middle" x="560.5" y="-94.7" font-family="Times,serif" font-size="14.00">Amount</text>
<polyline fill="none" stroke="black" points="596.25,-86.75 596.25,-112"/>
<text text-anchor="middle" x="630.12" y="-94.7" font-family="Times,serif" font-size="14.00">Reason</text>
</g>
<!-- SalaryPayment -->
<g id="node7" class="node">
<title>SalaryPayment</title>
<polygon fill="none" stroke="black" points="439.25,-16.75 439.25,-67.25 607.25,-67.25 607.25,-16.75 439.25,-16.75"/>
<text text-anchor="middle" x="523.25" y="-49.95" font-family="Times,serif" font-size="14.00">SalaryPayment</text>
<polyline fill="none" stroke="black" points="439.25,-42 607.25,-42"/>
<text text-anchor="middle" x="462.62" y="-24.7" font-family="Times,serif" font-size="14.00">Bird</text>
<polyline fill="none" stroke="black" points="486,-16.75 486,-42"/>
<text text-anchor="middle" x="510.88" y="-24.7" font-family="Times,serif" font-size="14.00">Date</text>
<polyline fill="none" stroke="black" points="535.75,-16.75 535.75,-42"/>
<text text-anchor="middle" x="571.5" y="-24.7" font-family="Times,serif" font-size="14.00">Amount</text>
</g>
</g>
</svg>
