<?xml version="1.0" encoding="UTF-8" standalone="no"?>
<!DOCTYPE svg PUBLIC "-//W3C//DTD SVG 1.1//EN"
 "http://www.w3.org/Graphics/SVG/1.1/DTD/svg11.dtd">
<!-- Generated by graphviz version 8.0.5 (0)
 -->
<!-- Title: EventStorming Pages: 1 -->
<svg width="1699pt" height="808pt"
 viewBox="0.00 0.00 1698.75 808.00" xmlns="http://www.w3.org/2000/svg" xmlns:xlink="http://www.w3.org/1999/xlink">
<g id="graph0" class="graph" transform="scale(1 1) rotate(0) translate(4 804)">
<title>EventStorming</title>
<polygon fill="white" stroke="none" points="-4,4 -4,-804 1694.75,-804 1694.75,4 -4,4"/>
<g id="clust1" class="cluster">
<title>cluster_Legend</title>
<polygon fill="none" stroke="black" points="8,-8 8,-126 1091.25,-126 1091.25,-8 8,-8"/>
<text text-anchor="middle" x="549.62" y="-108.7" font-family="Times,serif" font-size="14.00">Legend</text>
</g>
<g id="clust2" class="cluster">
<title>External System</title>
</g>
<g id="clust3" class="cluster">
<title>cluster_TaskManagement</title>
<polygon fill="none" stroke="black" stroke-dasharray="1,5" points="12.75,-233 12.75,-578 1063.88,-578 1063.88,-233 12.75,-233"/>
<text text-anchor="middle" x="538.31" y="-560.7" font-family="Times,serif" font-size="14.00">Task Management</text>
</g>
<g id="clust4" class="cluster">
<title>cluster_TaskCreation</title>
</g>
<g id="clust6" class="cluster">
<title>cluster_TaskCompletion</title>
</g>
<g id="clust7" class="cluster">
<title>Clock</title>
</g>
<g id="clust8" class="cluster">
<title>Bank</title>
</g>
<g id="clust9" class="cluster">
<title>Postman</title>
</g>
<g id="clust10" class="cluster">
<title>cluster_TaskBilling</title>
<polygon fill="none" stroke="black" stroke-dasharray="1,5" points="1103.25,-131 1103.25,-505 1671,-505 1671,-131 1103.25,-131"/>
<text text-anchor="middle" x="1387.12" y="-487.7" font-family="Times,serif" font-size="14.00">Task Billing</text>
</g>
<g id="clust13" class="cluster">
<title>cluster_Auth</title>
<polygon fill="none" stroke="black" stroke-dasharray="1,5" points="31.38,-586 31.38,-792 420.75,-792 420.75,-586 31.38,-586"/>
<text text-anchor="middle" x="226.06" y="-774.7" font-family="Times,serif" font-size="14.00">Auth</text>
</g>
<!-- Read Model -->
<g id="node1" class="node">
<title>Read Model</title>
<polygon fill="lightgreen" stroke="black" points="116.75,-60 16,-60 16,-24 116.75,-24 116.75,-60"/>
<text text-anchor="middle" x="66.38" y="-37.33" font-family="Times,serif" font-size="14.00">Read Model</text>
</g>
<!-- Actor -->
<g id="node2" class="node">
<title>Actor</title>
<polygon fill="yellow" stroke="black" points="237.38,-60 183.12,-60 183.12,-24 237.38,-24 237.38,-60"/>
<text text-anchor="middle" x="210.25" y="-37.33" font-family="Times,serif" font-size="14.00">Actor</text>
</g>
<!-- Read Model&#45;&gt;Actor -->
<!-- Command -->
<g id="node3" class="node">
<title>Command</title>
<polygon fill="lightblue" stroke="black" points="409.75,-60 321.75,-60 321.75,-24 409.75,-24 409.75,-60"/>
<text text-anchor="middle" x="365.75" y="-37.33" font-family="Times,serif" font-size="14.00">Command</text>
</g>
<!-- Actor&#45;&gt;Command -->
<!-- Aggregate -->
<g id="node4" class="node">
<title>Aggregate</title>
<polygon fill="lightyellow" stroke="black" points="587.38,-60 497.12,-60 497.12,-24 587.38,-24 587.38,-60"/>
<text text-anchor="middle" x="542.25" y="-37.33" font-family="Times,serif" font-size="14.00">Aggregate</text>
</g>
<!-- Command&#45;&gt;Aggregate -->
<!-- Event -->
<g id="node5" class="node">
<title>Event</title>
<polygon fill="darkorange" stroke="black" points="732.38,-60 674.38,-60 674.38,-24 732.38,-24 732.38,-60"/>
<text text-anchor="middle" x="703.38" y="-37.33" font-family="Times,serif" font-size="14.00">Event</text>
</g>
<!-- Aggregate&#45;&gt;Event -->
<!-- Policy -->
<g id="node6" class="node">
<title>Policy</title>
<polygon fill="violet" stroke="black" points="874,-60 816,-60 816,-24 874,-24 874,-60"/>
<text text-anchor="middle" x="845" y="-37.33" font-family="Times,serif" font-size="14.00">Policy</text>
</g>
<!-- Event&#45;&gt;Policy -->
<!-- External System -->
<g id="node7" class="node">
<title>External System</title>
<polygon fill="pink" stroke="black" points="1075.25,-60 940,-60 940,-24 1075.25,-24 1075.25,-60"/>
<text text-anchor="middle" x="1007.62" y="-37.33" font-family="Times,serif" font-size="14.00">External System</text>
</g>
<!-- Policy&#45;&gt;External System -->
<!-- Task -->
<g id="node8" class="node">
<title>Task</title>
<polygon fill="lightyellow" stroke="black" points="93.38,-428 39.38,-428 39.38,-392 93.38,-392 93.38,-428"/>
<text text-anchor="middle" x="66.38" y="-405.32" font-family="Times,serif" font-size="14.00">Task</text>
</g>
<!-- bird_2 -->
<g id="node9" class="node">
<title>bird_2</title>
<polygon fill="yellow" stroke="black" points="237.25,-386 183.25,-386 183.25,-350 237.25,-350 237.25,-386"/>
<text text-anchor="middle" x="210.25" y="-363.32" font-family="Times,serif" font-size="14.00">Bird</text>
</g>
<!-- Create\nTask -->
<g id="node10" class="node">
<title>Create\nTask</title>
<polygon fill="lightblue" stroke="black" points="397.75,-389.25 333.75,-389.25 333.75,-346.75 397.75,-346.75 397.75,-389.25"/>
<text text-anchor="middle" x="365.75" y="-371.95" font-family="Times,serif" font-size="14.00">Create</text>
<text text-anchor="middle" x="365.75" y="-354.7" font-family="Times,serif" font-size="14.00">Task</text>
</g>
<!-- bird_2&#45;&gt;Create\nTask -->
<g id="edge7" class="edge">
<title>bird_2&#45;&gt;Create\nTask</title>
<path fill="none" stroke="black" d="M237.64,-368C260.99,-368 295.49,-368 322.65,-368"/>
<polygon fill="black" stroke="black" points="322.41,-371.5 332.41,-368 322.41,-364.5 322.41,-371.5"/>
</g>
<!-- Task\nCreated -->
<g id="node11" class="node">
<title>Task\nCreated</title>
<polygon fill="darkorange" stroke="black" points="578.75,-389.25 505.75,-389.25 505.75,-346.75 578.75,-346.75 578.75,-389.25"/>
<text text-anchor="middle" x="542.25" y="-371.95" font-family="Times,serif" font-size="14.00">Task</text>
<text text-anchor="middle" x="542.25" y="-354.7" font-family="Times,serif" font-size="14.00">Created</text>
</g>
<!-- Create\nTask&#45;&gt;Task\nCreated -->
<g id="edge8" class="edge">
<title>Create\nTask&#45;&gt;Task\nCreated</title>
<path fill="none" stroke="black" d="M397.95,-368C424.84,-368 464.05,-368 494.66,-368"/>
<polygon fill="black" stroke="black" points="494.51,-371.5 504.51,-368 494.51,-364.5 494.51,-371.5"/>
</g>
<!-- Assign\nTask -->
<g id="node12" class="node">
<title>Assign\nTask</title>
<polygon fill="lightblue" stroke="black" points="735,-449.25 671.75,-449.25 671.75,-406.75 735,-406.75 735,-449.25"/>
<text text-anchor="middle" x="703.38" y="-431.95" font-family="Times,serif" font-size="14.00">Assign</text>
<text text-anchor="middle" x="703.38" y="-414.7" font-family="Times,serif" font-size="14.00">Task</text>
</g>
<!-- Task\nCreated&#45;&gt;Assign\nTask -->
<g id="edge9" class="edge">
<title>Task\nCreated&#45;&gt;Assign\nTask</title>
<path fill="none" stroke="black" d="M578.96,-381.47C603.36,-390.67 635.77,-402.89 661.25,-412.49"/>
<polygon fill="black" stroke="black" points="659.76,-416.05 670.35,-416.3 662.23,-409.5 659.76,-416.05"/>
</g>
<!-- Set\nTask Pice -->
<g id="node31" class="node">
<title>Set\nTask Pice</title>
<polygon fill="lightblue" stroke="black" points="1212,-242.25 1129.25,-242.25 1129.25,-199.75 1212,-199.75 1212,-242.25"/>
<text text-anchor="middle" x="1170.62" y="-224.95" font-family="Times,serif" font-size="14.00">Set</text>
<text text-anchor="middle" x="1170.62" y="-207.7" font-family="Times,serif" font-size="14.00">Task Pice</text>
</g>
<!-- Task\nCreated&#45;&gt;Set\nTask Pice -->
<g id="edge23" class="edge">
<title>Task\nCreated&#45;&gt;Set\nTask Pice</title>
<path fill="none" stroke="black" d="M579.23,-356.37C593.71,-350.17 609.59,-341.25 620.75,-329 650.32,-296.54 620.87,-262.31 656.75,-237 729.75,-185.49 1003.18,-204.87 1118.17,-215.68"/>
<polygon fill="black" stroke="black" points="1117.83,-219.26 1128.12,-216.73 1118.5,-212.29 1117.83,-219.26"/>
</g>
<!-- check_role_before_assign -->
<g id="node13" class="node">
<title>check_role_before_assign</title>
<polygon fill="violet" stroke="black" points="890.88,-383.25 799.12,-383.25 799.12,-340.75 890.88,-340.75 890.88,-383.25"/>
<text text-anchor="middle" x="845" y="-365.95" font-family="Times,serif" font-size="14.00">Check</text>
<text text-anchor="middle" x="845" y="-348.7" font-family="Times,serif" font-size="14.00">bird`s role</text>
</g>
<!-- Assign\nTask&#45;&gt;check_role_before_assign -->
<g id="edge10" class="edge">
<title>Assign\nTask&#45;&gt;check_role_before_assign</title>
<path fill="none" stroke="black" d="M735.36,-413.35C751.09,-405.92 770.67,-396.66 788.86,-388.06"/>
<polygon fill="black" stroke="black" points="790.24,-390.81 797.79,-383.37 787.25,-384.48 790.24,-390.81"/>
</g>
<!-- check_status_before_assign -->
<g id="node14" class="node">
<title>check_status_before_assign</title>
<polygon fill="violet" stroke="black" points="904,-460.88 786,-460.88 786,-401.12 904,-401.12 904,-460.88"/>
<text text-anchor="middle" x="845" y="-443.57" font-family="Times,serif" font-size="14.00">Check</text>
<text text-anchor="middle" x="845" y="-426.32" font-family="Times,serif" font-size="14.00">task is</text>
<text text-anchor="middle" x="845" y="-409.07" font-family="Times,serif" font-size="14.00">not completed</text>
</g>
<!-- Assign\nTask&#45;&gt;check_status_before_assign -->
<g id="edge11" class="edge">
<title>Assign\nTask&#45;&gt;check_status_before_assign</title>
<path fill="none" stroke="black" d="M735.36,-428.67C747.03,-428.92 760.81,-429.21 774.58,-429.51"/>
<polygon fill="black" stroke="black" points="774.5,-433.03 784.57,-429.74 774.65,-426.03 774.5,-433.03"/>
</g>
<!-- Task\nAssigned -->
<g id="node15" class="node">
<title>Task\nAssigned</title>
<polygon fill="darkorange" stroke="black" points="1047.88,-383.25 967.38,-383.25 967.38,-340.75 1047.88,-340.75 1047.88,-383.25"/>
<text text-anchor="middle" x="1007.62" y="-365.95" font-family="Times,serif" font-size="14.00">Task</text>
<text text-anchor="middle" x="1007.62" y="-348.7" font-family="Times,serif" font-size="14.00">Assigned</text>
</g>
<!-- check_role_before_assign&#45;&gt;Task\nAssigned -->
<g id="edge12" class="edge">
<title>check_role_before_assign&#45;&gt;Task\nAssigned</title>
<path fill="none" stroke="black" d="M891.17,-362C911.38,-362 935.3,-362 956.1,-362"/>
<polygon fill="black" stroke="black" points="955.98,-365.5 965.98,-362 955.98,-358.5 955.98,-365.5"/>
</g>
<!-- check_status_before_assign&#45;&gt;Task\nAssigned -->
<g id="edge13" class="edge">
<title>check_status_before_assign&#45;&gt;Task\nAssigned</title>
<path fill="none" stroke="black" d="M904.44,-405.89C921.68,-398.49 940.37,-390.46 956.99,-383.32"/>
<polygon fill="black" stroke="black" points="958.24,-386.17 966.04,-379 955.47,-379.73 958.24,-386.17"/>
</g>
<!-- Withdraw\nTask Fee -->
<g id="node33" class="node">
<title>Withdraw\nTask Fee</title>
<polygon fill="lightblue" stroke="black" points="1213.5,-364.25 1127.75,-364.25 1127.75,-321.75 1213.5,-321.75 1213.5,-364.25"/>
<text text-anchor="middle" x="1170.62" y="-346.95" font-family="Times,serif" font-size="14.00">Withdraw</text>
<text text-anchor="middle" x="1170.62" y="-329.7" font-family="Times,serif" font-size="14.00">Task Fee</text>
</g>
<!-- Task\nAssigned&#45;&gt;Withdraw\nTask Fee -->
<g id="edge25" class="edge">
<title>Task\nAssigned&#45;&gt;Withdraw\nTask Fee</title>
<path fill="none" stroke="black" d="M1048.01,-357.35C1068.65,-354.92 1094.22,-351.9 1116.58,-349.26"/>
<polygon fill="black" stroke="black" points="1116.74,-352.65 1126.26,-348 1115.92,-345.7 1116.74,-352.65"/>
</g>
<!-- workers -->
<g id="node16" class="node">
<title>workers</title>
<polygon fill="lightgreen" stroke="black" points="620.75,-446 463.75,-446 463.75,-410 620.75,-410 620.75,-446"/>
<text text-anchor="middle" x="542.25" y="-423.32" font-family="Times,serif" font-size="14.00">List of worker birds</text>
</g>
<!-- workers&#45;&gt;Assign\nTask -->
<g id="edge14" class="edge">
<title>workers&#45;&gt;Assign\nTask</title>
<path fill="none" stroke="black" d="M620.95,-428C634.72,-428 648.57,-428 660.83,-428"/>
<polygon fill="black" stroke="black" points="660.61,-431.5 670.61,-428 660.61,-424.5 660.61,-431.5"/>
</g>
<!-- read_tasks_2 -->
<g id="node17" class="node">
<title>read_tasks_2</title>
<polygon fill="lightgreen" stroke="black" points="104,-541 28.75,-541 28.75,-505 104,-505 104,-541"/>
<text text-anchor="middle" x="66.38" y="-518.33" font-family="Times,serif" font-size="14.00">Task list</text>
</g>
<!-- bird_4 -->
<g id="node18" class="node">
<title>bird_4</title>
<polygon fill="yellow" stroke="black" points="267.75,-541 152.75,-541 152.75,-505 267.75,-505 267.75,-541"/>
<text text-anchor="middle" x="210.25" y="-518.33" font-family="Times,serif" font-size="14.00">Bird Manager</text>
</g>
<!-- read_tasks_2&#45;&gt;bird_4 -->
<g id="edge15" class="edge">
<title>read_tasks_2&#45;&gt;bird_4</title>
<path fill="none" stroke="black" d="M104.28,-523C115.76,-523 128.8,-523 141.69,-523"/>
<polygon fill="black" stroke="black" points="141.45,-526.5 151.45,-523 141.45,-519.5 141.45,-526.5"/>
</g>
<!-- Request\nTasks Shuffle -->
<g id="node19" class="node">
<title>Request\nTasks Shuffle</title>
<polygon fill="lightblue" stroke="black" points="421,-544.25 310.5,-544.25 310.5,-501.75 421,-501.75 421,-544.25"/>
<text text-anchor="middle" x="365.75" y="-526.95" font-family="Times,serif" font-size="14.00">Request</text>
<text text-anchor="middle" x="365.75" y="-509.7" font-family="Times,serif" font-size="14.00">Tasks Shuffle</text>
</g>
<!-- bird_4&#45;&gt;Request\nTasks Shuffle -->
<g id="edge16" class="edge">
<title>bird_4&#45;&gt;Request\nTasks Shuffle</title>
<path fill="none" stroke="black" d="M267.97,-523C278.18,-523 288.89,-523 299.32,-523"/>
<polygon fill="black" stroke="black" points="299.05,-526.5 309.05,-523 299.05,-519.5 299.05,-526.5"/>
</g>
<!-- Tasks Shuffle\nRequested -->
<g id="node20" class="node">
<title>Tasks Shuffle\nRequested</title>
<polygon fill="darkorange" stroke="black" points="597.5,-544.25 487,-544.25 487,-501.75 597.5,-501.75 597.5,-544.25"/>
<text text-anchor="middle" x="542.25" y="-526.95" font-family="Times,serif" font-size="14.00">Tasks Shuffle</text>
<text text-anchor="middle" x="542.25" y="-509.7" font-family="Times,serif" font-size="14.00">Requested</text>
</g>
<!-- Request\nTasks Shuffle&#45;&gt;Tasks Shuffle\nRequested -->
<g id="edge17" class="edge">
<title>Request\nTasks Shuffle&#45;&gt;Tasks Shuffle\nRequested</title>
<path fill="none" stroke="black" d="M421.48,-523C438.7,-523 457.89,-523 475.77,-523"/>
<polygon fill="black" stroke="black" points="475.71,-526.5 485.71,-523 475.71,-519.5 475.71,-526.5"/>
</g>
<!-- Tasks Shuffle\nRequested&#45;&gt;Assign\nTask -->
<g id="edge18" class="edge">
<title>Tasks Shuffle\nRequested&#45;&gt;Assign\nTask</title>
<path fill="none" stroke="black" d="M597.78,-508.46C605.7,-505.48 613.6,-502.01 620.75,-498 640.27,-487.07 659.39,-471.04 674.22,-457.08"/>
<polygon fill="black" stroke="black" points="676.23,-460.04 680.99,-450.58 671.37,-455 676.23,-460.04"/>
</g>
<!-- read_tasks -->
<g id="node21" class="node">
<title>read_tasks</title>
<polygon fill="lightgreen" stroke="black" points="104,-288 28.75,-288 28.75,-252 104,-252 104,-288"/>
<text text-anchor="middle" x="66.38" y="-265.32" font-family="Times,serif" font-size="14.00">Task list</text>
</g>
<!-- bird_3 -->
<g id="node22" class="node">
<title>bird_3</title>
<polygon fill="yellow" stroke="black" points="237.25,-288 183.25,-288 183.25,-252 237.25,-252 237.25,-288"/>
<text text-anchor="middle" x="210.25" y="-265.32" font-family="Times,serif" font-size="14.00">Bird</text>
</g>
<!-- read_tasks&#45;&gt;bird_3 -->
<g id="edge19" class="edge">
<title>read_tasks&#45;&gt;bird_3</title>
<path fill="none" stroke="black" d="M104.28,-270C125.16,-270 151.19,-270 172.11,-270"/>
<polygon fill="black" stroke="black" points="171.83,-273.5 181.83,-270 171.83,-266.5 171.83,-273.5"/>
</g>
<!-- check_assignee -->
<g id="node23" class="node">
<title>check_assignee</title>
<polygon fill="violet" stroke="black" points="427.75,-291.25 303.75,-291.25 303.75,-248.75 427.75,-248.75 427.75,-291.25"/>
<text text-anchor="middle" x="365.75" y="-273.95" font-family="Times,serif" font-size="14.00">Check</text>
<text text-anchor="middle" x="365.75" y="-256.7" font-family="Times,serif" font-size="14.00">task&#39;s assignee</text>
</g>
<!-- bird_3&#45;&gt;check_assignee -->
<g id="edge20" class="edge">
<title>bird_3&#45;&gt;check_assignee</title>
<path fill="none" stroke="black" d="M237.64,-270C252.9,-270 272.91,-270 292.53,-270"/>
<polygon fill="black" stroke="black" points="292.36,-273.5 302.36,-270 292.36,-266.5 292.36,-273.5"/>
</g>
<!-- Complete\nTask -->
<g id="node24" class="node">
<title>Complete\nTask</title>
<polygon fill="lightblue" stroke="black" points="584.38,-291.25 500.12,-291.25 500.12,-248.75 584.38,-248.75 584.38,-291.25"/>
<text text-anchor="middle" x="542.25" y="-273.95" font-family="Times,serif" font-size="14.00">Complete</text>
<text text-anchor="middle" x="542.25" y="-256.7" font-family="Times,serif" font-size="14.00">Task</text>
</g>
<!-- check_assignee&#45;&gt;Complete\nTask -->
<g id="edge21" class="edge">
<title>check_assignee&#45;&gt;Complete\nTask</title>
<path fill="none" stroke="black" d="M427.78,-270C447.66,-270 469.55,-270 488.75,-270"/>
<polygon fill="black" stroke="black" points="488.71,-273.5 498.71,-270 488.71,-266.5 488.71,-273.5"/>
</g>
<!-- Task\nCompleted -->
<g id="node25" class="node">
<title>Task\nCompleted</title>
<polygon fill="darkorange" stroke="black" points="750,-291.25 656.75,-291.25 656.75,-248.75 750,-248.75 750,-291.25"/>
<text text-anchor="middle" x="703.38" y="-273.95" font-family="Times,serif" font-size="14.00">Task</text>
<text text-anchor="middle" x="703.38" y="-256.7" font-family="Times,serif" font-size="14.00">Completed</text>
</g>
<!-- Complete\nTask&#45;&gt;Task\nCompleted -->
<g id="edge22" class="edge">
<title>Complete\nTask&#45;&gt;Task\nCompleted</title>
<path fill="none" stroke="black" d="M584.64,-270C603.21,-270 625.42,-270 645.51,-270"/>
<polygon fill="black" stroke="black" points="645.43,-273.5 655.43,-270 645.43,-266.5 645.43,-273.5"/>
</g>
<!-- Pay\nTask Reward -->
<g id="node35" class="node">
<title>Pay\nTask Reward</title>
<polygon fill="lightblue" stroke="black" points="1224.38,-303.25 1116.88,-303.25 1116.88,-260.75 1224.38,-260.75 1224.38,-303.25"/>
<text text-anchor="middle" x="1170.62" y="-285.95" font-family="Times,serif" font-size="14.00">Pay</text>
<text text-anchor="middle" x="1170.62" y="-268.7" font-family="Times,serif" font-size="14.00">Task Reward</text>
</g>
<!-- Task\nCompleted&#45;&gt;Pay\nTask Reward -->
<g id="edge27" class="edge">
<title>Task\nCompleted&#45;&gt;Pay\nTask Reward</title>
<path fill="none" stroke="black" d="M750.26,-271.18C833.72,-273.34 1010.54,-277.9 1105.74,-280.35"/>
<polygon fill="black" stroke="black" points="1105.57,-283.87 1115.66,-280.63 1105.75,-276.88 1105.57,-283.87"/>
</g>
<!-- Clock -->
<g id="node26" class="node">
<title>Clock</title>
<polygon fill="pink" stroke="black" points="1035.12,-178 980.12,-178 980.12,-142 1035.12,-142 1035.12,-178"/>
<text text-anchor="middle" x="1007.62" y="-155.32" font-family="Times,serif" font-size="14.00">Clock</text>
</g>
<!-- Day\nClosed -->
<g id="node37" class="node">
<title>Day\nClosed</title>
<polygon fill="darkorange" stroke="black" points="1202.62,-181.25 1138.62,-181.25 1138.62,-138.75 1202.62,-138.75 1202.62,-181.25"/>
<text text-anchor="middle" x="1170.62" y="-163.95" font-family="Times,serif" font-size="14.00">Day</text>
<text text-anchor="middle" x="1170.62" y="-146.7" font-family="Times,serif" font-size="14.00">Closed</text>
</g>
<!-- Clock&#45;&gt;Day\nClosed -->
<g id="edge29" class="edge">
<title>Clock&#45;&gt;Day\nClosed</title>
<path fill="none" stroke="black" d="M1035.57,-160C1060.66,-160 1098.43,-160 1127.5,-160"/>
<polygon fill="black" stroke="black" points="1127.17,-163.5 1137.17,-160 1127.17,-156.5 1127.17,-163.5"/>
</g>
<!-- Bank -->
<g id="node27" class="node">
<title>Bank</title>
<polygon fill="pink" stroke="black" points="1467.38,-115 1413.38,-115 1413.38,-79 1467.38,-79 1467.38,-115"/>
<text text-anchor="middle" x="1440.38" y="-92.33" font-family="Times,serif" font-size="14.00">Bank</text>
</g>
<!-- Postman -->
<g id="node28" class="node">
<title>Postman</title>
<polygon fill="pink" stroke="black" points="1674.75,-115 1597.25,-115 1597.25,-79 1674.75,-79 1674.75,-115"/>
<text text-anchor="middle" x="1636" y="-92.33" font-family="Times,serif" font-size="14.00">Postman</text>
</g>
<!-- Task Price -->
<g id="node29" class="node">
<title>Task Price</title>
<polygon fill="lightyellow" stroke="black" points="1215.38,-472 1125.88,-472 1125.88,-436 1215.38,-436 1215.38,-472"/>
<text text-anchor="middle" x="1170.62" y="-449.32" font-family="Times,serif" font-size="14.00">Task Price</text>
</g>
<!-- Bird&#39;s Balance -->
<g id="node30" class="node">
<title>Bird&#39;s Balance</title>
<polygon fill="lightyellow" stroke="black" points="1230,-418 1111.25,-418 1111.25,-382 1230,-382 1230,-418"/>
<text text-anchor="middle" x="1170.62" y="-395.32" font-family="Times,serif" font-size="14.00">Bird&#39;s Balance</text>
</g>
<!-- Task Price\nSet -->
<g id="node32" class="node">
<title>Task Price\nSet</title>
<polygon fill="darkorange" stroke="black" points="1364.5,-242.25 1275,-242.25 1275,-199.75 1364.5,-199.75 1364.5,-242.25"/>
<text text-anchor="middle" x="1319.75" y="-224.95" font-family="Times,serif" font-size="14.00">Task Price</text>
<text text-anchor="middle" x="1319.75" y="-207.7" font-family="Times,serif" font-size="14.00">Set</text>
</g>
<!-- Set\nTask Pice&#45;&gt;Task Price\nSet -->
<g id="edge24" class="edge">
<title>Set\nTask Pice&#45;&gt;Task Price\nSet</title>
<path fill="none" stroke="black" d="M1212.22,-221C1228.12,-221 1246.63,-221 1263.7,-221"/>
<polygon fill="black" stroke="black" points="1263.68,-224.5 1273.68,-221 1263.68,-217.5 1263.68,-224.5"/>
</g>
<!-- Task Fee\nWithdrawed -->
<g id="node34" class="node">
<title>Task Fee\nWithdrawed</title>
<polygon fill="darkorange" stroke="black" points="1371.25,-364.25 1268.25,-364.25 1268.25,-321.75 1371.25,-321.75 1371.25,-364.25"/>
<text text-anchor="middle" x="1319.75" y="-346.95" font-family="Times,serif" font-size="14.00">Task Fee</text>
<text text-anchor="middle" x="1319.75" y="-329.7" font-family="Times,serif" font-size="14.00">Withdrawed</text>
</g>
<!-- Withdraw\nTask Fee&#45;&gt;Task Fee\nWithdrawed -->
<g id="edge26" class="edge">
<title>Withdraw\nTask Fee&#45;&gt;Task Fee\nWithdrawed</title>
<path fill="none" stroke="black" d="M1213.79,-343C1227.25,-343 1242.44,-343 1257,-343"/>
<polygon fill="black" stroke="black" points="1256.97,-346.5 1266.97,-343 1256.97,-339.5 1256.97,-346.5"/>
</g>
<!-- Task Reward\nPayed -->
<g id="node36" class="node">
<title>Task Reward\nPayed</title>
<polygon fill="darkorange" stroke="black" points="1373.5,-303.25 1266,-303.25 1266,-260.75 1373.5,-260.75 1373.5,-303.25"/>
<text text-anchor="middle" x="1319.75" y="-285.95" font-family="Times,serif" font-size="14.00">Task Reward</text>
<text text-anchor="middle" x="1319.75" y="-268.7" font-family="Times,serif" font-size="14.00">Payed</text>
</g>
<!-- Pay\nTask Reward&#45;&gt;Task Reward\nPayed -->
<g id="edge28" class="edge">
<title>Pay\nTask Reward&#45;&gt;Task Reward\nPayed</title>
<path fill="none" stroke="black" d="M1224.74,-282C1234.53,-282 1244.85,-282 1254.92,-282"/>
<polygon fill="black" stroke="black" points="1254.71,-285.5 1264.71,-282 1254.71,-278.5 1254.71,-285.5"/>
</g>
<!-- Pay\nSalary -->
<g id="node38" class="node">
<title>Pay\nSalary</title>
<polygon fill="lightblue" stroke="black" points="1350.62,-181.25 1288.88,-181.25 1288.88,-138.75 1350.62,-138.75 1350.62,-181.25"/>
<text text-anchor="middle" x="1319.75" y="-163.95" font-family="Times,serif" font-size="14.00">Pay</text>
<text text-anchor="middle" x="1319.75" y="-146.7" font-family="Times,serif" font-size="14.00">Salary</text>
</g>
<!-- Day\nClosed&#45;&gt;Pay\nSalary -->
<g id="edge30" class="edge">
<title>Day\nClosed&#45;&gt;Pay\nSalary</title>
<path fill="none" stroke="black" d="M1202.83,-160C1224.67,-160 1254.08,-160 1277.81,-160"/>
<polygon fill="black" stroke="black" points="1277.6,-163.5 1287.6,-160 1277.6,-156.5 1277.6,-163.5"/>
</g>
<!-- Pay\nSalary&#45;&gt;Bank -->
<g id="edge31" class="edge">
<title>Pay\nSalary&#45;&gt;Bank</title>
<path fill="none" stroke="black" d="M1350.99,-143.94C1367.06,-135.41 1386.91,-124.87 1403.72,-115.94"/>
<polygon fill="black" stroke="black" points="1405.03,-118.67 1412.22,-110.89 1401.74,-112.49 1405.03,-118.67"/>
</g>
<!-- Salary\nPayed -->
<g id="node39" class="node">
<title>Salary\nPayed</title>
<polygon fill="darkorange" stroke="black" points="1471.25,-181.25 1409.5,-181.25 1409.5,-138.75 1471.25,-138.75 1471.25,-181.25"/>
<text text-anchor="middle" x="1440.38" y="-163.95" font-family="Times,serif" font-size="14.00">Salary</text>
<text text-anchor="middle" x="1440.38" y="-146.7" font-family="Times,serif" font-size="14.00">Payed</text>
</g>
<!-- Pay\nSalary&#45;&gt;Salary\nPayed -->
<g id="edge32" class="edge">
<title>Pay\nSalary&#45;&gt;Salary\nPayed</title>
<path fill="none" stroke="black" d="M1350.99,-160C1365.35,-160 1382.74,-160 1398.27,-160"/>
<polygon fill="black" stroke="black" points="1398.19,-163.5 1408.19,-160 1398.19,-156.5 1398.19,-163.5"/>
</g>
<!-- Send\nMail -->
<g id="node40" class="node">
<title>Send\nMail</title>
<polygon fill="lightblue" stroke="black" points="1561.25,-181.25 1507.25,-181.25 1507.25,-138.75 1561.25,-138.75 1561.25,-181.25"/>
<text text-anchor="middle" x="1534.25" y="-163.95" font-family="Times,serif" font-size="14.00">Send</text>
<text text-anchor="middle" x="1534.25" y="-146.7" font-family="Times,serif" font-size="14.00">Mail</text>
</g>
<!-- Salary\nPayed&#45;&gt;Send\nMail -->
<g id="edge33" class="edge">
<title>Salary\nPayed&#45;&gt;Send\nMail</title>
<path fill="none" stroke="black" d="M1471.71,-160C1479.55,-160 1488.07,-160 1496.2,-160"/>
<polygon fill="black" stroke="black" points="1495.95,-163.5 1505.95,-160 1495.95,-156.5 1495.95,-163.5"/>
</g>
<!-- Send\nMail&#45;&gt;Postman -->
<g id="edge34" class="edge">
<title>Send\nMail&#45;&gt;Postman</title>
<path fill="none" stroke="black" d="M1561.72,-143.28C1572.47,-136.49 1585.09,-128.52 1596.8,-121.12"/>
<polygon fill="black" stroke="black" points="1598.36,-123.65 1604.95,-115.35 1594.63,-117.73 1598.36,-123.65"/>
</g>
<!-- Mail\nSent -->
<g id="node41" class="node">
<title>Mail\nSent</title>
<polygon fill="darkorange" stroke="black" points="1663,-181.25 1609,-181.25 1609,-138.75 1663,-138.75 1663,-181.25"/>
<text text-anchor="middle" x="1636" y="-163.95" font-family="Times,serif" font-size="14.00">Mail</text>
<text text-anchor="middle" x="1636" y="-146.7" font-family="Times,serif" font-size="14.00">Sent</text>
</g>
<!-- Send\nMail&#45;&gt;Mail\nSent -->
<g id="edge35" class="edge">
<title>Send\nMail&#45;&gt;Mail\nSent</title>
<path fill="none" stroke="black" d="M1561.72,-160C1572.86,-160 1586,-160 1598.07,-160"/>
<polygon fill="black" stroke="black" points="1597.75,-163.5 1607.75,-160 1597.75,-156.5 1597.75,-163.5"/>
</g>
<!-- Bird -->
<g id="node42" class="node">
<title>Bird</title>
<polygon fill="lightyellow" stroke="black" points="93.38,-756 39.38,-756 39.38,-720 93.38,-720 93.38,-756"/>
<text text-anchor="middle" x="66.38" y="-733.33" font-family="Times,serif" font-size="14.00">Bird</text>
</g>
<!-- bird_1 -->
<g id="node43" class="node">
<title>bird_1</title>
<polygon fill="yellow" stroke="black" points="93.38,-697 39.38,-697 39.38,-661 93.38,-661 93.38,-697"/>
<text text-anchor="middle" x="66.38" y="-674.33" font-family="Times,serif" font-size="14.00">Bird</text>
</g>
<!-- Try\nAuth -->
<g id="node44" class="node">
<title>Try\nAuth</title>
<polygon fill="lightblue" stroke="black" points="237.25,-700.25 183.25,-700.25 183.25,-657.75 237.25,-657.75 237.25,-700.25"/>
<text text-anchor="middle" x="210.25" y="-682.95" font-family="Times,serif" font-size="14.00">Try</text>
<text text-anchor="middle" x="210.25" y="-665.7" font-family="Times,serif" font-size="14.00">Auth</text>
</g>
<!-- bird_1&#45;&gt;Try\nAuth -->
<g id="edge36" class="edge">
<title>bird_1&#45;&gt;Try\nAuth</title>
<path fill="none" stroke="black" d="M93.73,-679C115.83,-679 147.63,-679 172.28,-679"/>
<polygon fill="black" stroke="black" points="172.04,-682.5 182.04,-679 172.04,-675.5 172.04,-682.5"/>
</g>
<!-- Auth\nOk -->
<g id="node45" class="node">
<title>Auth\nOk</title>
<polygon fill="darkorange" stroke="black" points="392.75,-697.25 338.75,-697.25 338.75,-654.75 392.75,-654.75 392.75,-697.25"/>
<text text-anchor="middle" x="365.75" y="-679.95" font-family="Times,serif" font-size="14.00">Auth</text>
<text text-anchor="middle" x="365.75" y="-662.7" font-family="Times,serif" font-size="14.00">Ok</text>
</g>
<!-- Try\nAuth&#45;&gt;Auth\nOk -->
<g id="edge37" class="edge">
<title>Try\nAuth&#45;&gt;Auth\nOk</title>
<path fill="none" stroke="black" d="M237.64,-678.48C262.42,-678 299.76,-677.27 327.56,-676.73"/>
<polygon fill="black" stroke="black" points="327.52,-680.21 337.45,-676.51 327.38,-673.21 327.52,-680.21"/>
</g>
<!-- Auth\nFailed -->
<g id="node46" class="node">
<title>Auth\nFailed</title>
<polygon fill="darkorange" stroke="black" points="395.5,-758.25 336,-758.25 336,-715.75 395.5,-715.75 395.5,-758.25"/>
<text text-anchor="middle" x="365.75" y="-740.95" font-family="Times,serif" font-size="14.00">Auth</text>
<text text-anchor="middle" x="365.75" y="-723.7" font-family="Times,serif" font-size="14.00">Failed</text>
</g>
<!-- Try\nAuth&#45;&gt;Auth\nFailed -->
<g id="edge38" class="edge">
<title>Try\nAuth&#45;&gt;Auth\nFailed</title>
<path fill="none" stroke="black" d="M237.64,-688.97C261.81,-698.1 297.91,-711.74 325.47,-722.16"/>
<polygon fill="black" stroke="black" points="323.98,-725.71 334.57,-725.97 326.45,-719.17 323.98,-725.71"/>
</g>
<!-- bird_11 -->
<g id="node47" class="node">
<title>bird_11</title>
<polygon fill="yellow" stroke="black" points="93.38,-633 39.38,-633 39.38,-597 93.38,-597 93.38,-633"/>
<text text-anchor="middle" x="66.38" y="-610.33" font-family="Times,serif" font-size="14.00">Bird</text>
</g>
<!-- Register\nBird -->
<g id="node48" class="node">
<title>Register\nBird</title>
<polygon fill="lightblue" stroke="black" points="248.62,-636.25 171.88,-636.25 171.88,-593.75 248.62,-593.75 248.62,-636.25"/>
<text text-anchor="middle" x="210.25" y="-618.95" font-family="Times,serif" font-size="14.00">Register</text>
<text text-anchor="middle" x="210.25" y="-601.7" font-family="Times,serif" font-size="14.00">Bird</text>
</g>
<!-- bird_11&#45;&gt;Register\nBird -->
<g id="edge39" class="edge">
<title>bird_11&#45;&gt;Register\nBird</title>
<path fill="none" stroke="black" d="M93.73,-615C112.53,-615 138.36,-615 160.82,-615"/>
<polygon fill="black" stroke="black" points="160.54,-618.5 170.54,-615 160.53,-611.5 160.54,-618.5"/>
</g>
<!-- Bird\nRegistered -->
<g id="node49" class="node">
<title>Bird\nRegistered</title>
<polygon fill="darkorange" stroke="black" points="412.75,-636.25 318.75,-636.25 318.75,-593.75 412.75,-593.75 412.75,-636.25"/>
<text text-anchor="middle" x="365.75" y="-618.95" font-family="Times,serif" font-size="14.00">Bird</text>
<text text-anchor="middle" x="365.75" y="-601.7" font-family="Times,serif" font-size="14.00">Registered</text>
</g>
<!-- Register\nBird&#45;&gt;Bird\nRegistered -->
<g id="edge40" class="edge">
<title>Register\nBird&#45;&gt;Bird\nRegistered</title>
<path fill="none" stroke="black" d="M248.8,-615C266.39,-615 287.74,-615 307.3,-615"/>
<polygon fill="black" stroke="black" points="307.26,-618.5 317.26,-615 307.26,-611.5 307.26,-618.5"/>
</g>
</g>
</svg>
