<?xml version="1.0" encoding="UTF-8" standalone="no"?>
<!DOCTYPE svg PUBLIC "-//W3C//DTD SVG 1.1//EN"
 "http://www.w3.org/Graphics/SVG/1.1/DTD/svg11.dtd">
<!-- Generated by graphviz version 8.0.5 (0)
 -->
<!-- Title: ServiceModel Pages: 1 -->
<svg width="767pt" height="421pt"
 viewBox="0.00 0.00 767.00 420.75" xmlns="http://www.w3.org/2000/svg" xmlns:xlink="http://www.w3.org/1999/xlink">
<g id="graph0" class="graph" transform="scale(1 1) rotate(0) translate(4 416.75)">
<title>ServiceModel</title>
<polygon fill="white" stroke="none" points="-4,4 -4,-416.75 763,-416.75 763,4 -4,4"/>
<g id="clust1" class="cluster">
<title>cluster_Tasks</title>
<polygon fill="none" stroke="black" stroke-dasharray="1,5" points="96,-203.75 96,-379.5 365,-379.5 365,-203.75 96,-203.75"/>
</g>
<g id="clust2" class="cluster">
<title>cluster_Billing</title>
<polygon fill="none" stroke="black" stroke-dasharray="1,5" points="8,-8 8,-149.25 272,-149.25 272,-8 8,-8"/>
</g>
<g id="clust3" class="cluster">
<title>cluster_Cron</title>
</g>
<g id="clust4" class="cluster">
<title>cluster_Mail</title>
</g>
<g id="clust5" class="cluster">
<title>cluster_Legend</title>
<polygon fill="none" stroke="black" points="521,-203.75 521,-404.75 751,-404.75 751,-203.75 521,-203.75"/>
<text text-anchor="middle" x="636" y="-387.45" font-family="Times,serif" font-size="14.00">Legend</text>
</g>
<!-- TaskCommander -->
<g id="node1" class="node">
<title>TaskCommander</title>
<polygon fill="none" stroke="black" points="356.62,-247.75 221.38,-247.75 221.38,-211.75 356.62,-211.75 356.62,-247.75"/>
<text text-anchor="middle" x="289" y="-225.07" font-family="Times,serif" font-size="14.00">TaskCommander</text>
</g>
<!-- BillingCommander -->
<g id="node4" class="node">
<title>BillingCommander</title>
<polygon fill="none" stroke="black" points="263.75,-141.25 114.25,-141.25 114.25,-105.25 263.75,-105.25 263.75,-141.25"/>
<text text-anchor="middle" x="189" y="-118.58" font-family="Times,serif" font-size="14.00">BillingCommander</text>
</g>
<!-- TaskCommander&#45;&gt;BillingCommander -->
<g id="edge8" class="edge">
<title>TaskCommander&#45;&gt;BillingCommander</title>
<path fill="none" stroke="darkorange" stroke-dasharray="5,2" d="M235.51,-211.31C212.89,-203.68 191.33,-195.96 189.75,-193.75 181.35,-182.02 180.64,-166.09 182.25,-152.45"/>
<polygon fill="darkorange" stroke="darkorange" points="185.86,-153.1 184.05,-142.66 178.96,-151.95 185.86,-153.1"/>
<text text-anchor="middle" x="228.62" y="-180.45" font-family="Times,serif" font-size="14.00" fill="darkorange">Assigned</text>
<text text-anchor="middle" x="228.62" y="-163.2" font-family="Times,serif" font-size="14.00" fill="darkorange">Completed</text>
</g>
<!-- TaskUI -->
<g id="node2" class="node">
<title>TaskUI</title>
<polygon fill="none" stroke="black" points="240.75,-371.5 175.25,-371.5 175.25,-335.5 240.75,-335.5 240.75,-371.5"/>
<text text-anchor="middle" x="208" y="-348.82" font-family="Times,serif" font-size="14.00">TaskUI</text>
</g>
<!-- TaskUI&#45;&gt;TaskCommander -->
<g id="edge2" class="edge">
<title>TaskUI&#45;&gt;TaskCommander</title>
<path fill="none" stroke="deepskyblue" d="M219.61,-335.06C233.14,-314.71 255.65,-280.87 271.36,-257.27"/>
<polygon fill="deepskyblue" stroke="deepskyblue" points="274.79,-259.43 277.42,-249.16 268.96,-255.55 274.79,-259.43"/>
<text text-anchor="middle" x="300.12" y="-304.2" font-family="Times,serif" font-size="14.00" fill="deepskyblue">Create</text>
<text text-anchor="middle" x="300.12" y="-286.95" font-family="Times,serif" font-size="14.00" fill="deepskyblue">Shuffle</text>
<text text-anchor="middle" x="300.12" y="-269.7" font-family="Times,serif" font-size="14.00" fill="deepskyblue">Complete</text>
</g>
<!-- TaskReader -->
<g id="node3" class="node">
<title>TaskReader</title>
<polygon fill="none" stroke="black" points="203.62,-247.75 104.38,-247.75 104.38,-211.75 203.62,-211.75 203.62,-247.75"/>
<text text-anchor="middle" x="154" y="-225.07" font-family="Times,serif" font-size="14.00">TaskReader</text>
</g>
<!-- TaskUI&#45;&gt;TaskReader -->
<g id="edge1" class="edge">
<title>TaskUI&#45;&gt;TaskReader</title>
<path fill="none" stroke="green" d="M200.26,-335.06C191.32,-314.9 176.5,-281.47 166.04,-257.9"/>
<polygon fill="green" stroke="green" points="168.98,-256.88 161.72,-249.16 162.58,-259.72 168.98,-256.88"/>
</g>
<!-- BillingCommander&#45;&gt;TaskCommander -->
<g id="edge9" class="edge">
<title>BillingCommander&#45;&gt;TaskCommander</title>
<path fill="none" stroke="darkorange" stroke-dasharray="5,2" d="M243.75,-141.6C252.39,-146.24 260.58,-152.05 267,-159.25 277.23,-170.73 282.71,-186.97 285.63,-200.87"/>
<polygon fill="darkorange" stroke="darkorange" points="282.3,-201.13 287.48,-210.37 289.2,-199.92 282.3,-201.13"/>
<text text-anchor="middle" x="316.62" y="-171.82" font-family="Times,serif" font-size="14.00" fill="darkorange">Price Set</text>
</g>
<!-- BillingReader -->
<g id="node6" class="node">
<title>BillingReader</title>
<polygon fill="none" stroke="black" points="177.75,-52 64.25,-52 64.25,-16 177.75,-16 177.75,-52"/>
<text text-anchor="middle" x="121" y="-29.32" font-family="Times,serif" font-size="14.00">BillingReader</text>
</g>
<!-- BillingCommander&#45;&gt;BillingReader -->
<g id="edge4" class="edge">
<title>BillingCommander&#45;&gt;BillingReader</title>
<path fill="none" stroke="darkorange" stroke-dasharray="5,2" d="M175.57,-105.01C165.69,-92.35 152.12,-74.92 140.97,-60.63"/>
<polygon fill="darkorange" stroke="darkorange" points="143.31,-58.94 134.41,-53.2 137.79,-63.24 143.31,-58.94"/>
<text text-anchor="middle" x="207.75" y="-73.95" font-family="Times,serif" font-size="14.00" fill="darkorange">Transactions</text>
</g>
<!-- Postman -->
<g id="node8" class="node">
<title>Postman</title>
<polygon fill="none" stroke="black" points="365.75,-52 288.25,-52 288.25,-16 365.75,-16 365.75,-52"/>
<text text-anchor="middle" x="327" y="-29.32" font-family="Times,serif" font-size="14.00">Postman</text>
</g>
<!-- BillingCommander&#45;&gt;Postman -->
<g id="edge6" class="edge">
<title>BillingCommander&#45;&gt;Postman</title>
<path fill="none" stroke="deepskyblue" d="M225.61,-104.81C235.96,-99.51 247.09,-93.44 257,-87.25 270.66,-78.72 285.04,-68.27 297.18,-58.97"/>
<polygon fill="deepskyblue" stroke="deepskyblue" points="298.84,-61.34 304.59,-52.44 294.55,-55.81 298.84,-61.34"/>
<text text-anchor="middle" x="317" y="-73.95" font-family="Times,serif" font-size="14.00" fill="deepskyblue">Send Mail</text>
</g>
<!-- BillingUI -->
<g id="node5" class="node">
<title>BillingUI</title>
<polygon fill="none" stroke="black" points="95.88,-141.25 16.12,-141.25 16.12,-105.25 95.88,-105.25 95.88,-141.25"/>
<text text-anchor="middle" x="56" y="-118.58" font-family="Times,serif" font-size="14.00">BillingUI</text>
</g>
<!-- BillingUI&#45;&gt;BillingReader -->
<g id="edge3" class="edge">
<title>BillingUI&#45;&gt;BillingReader</title>
<path fill="none" stroke="green" d="M68.84,-105.01C78.28,-92.35 91.26,-74.92 101.91,-60.63"/>
<polygon fill="green" stroke="green" points="105.02,-63.31 108.18,-53.2 99.4,-59.13 105.02,-63.31"/>
</g>
<!-- Cron -->
<g id="node7" class="node">
<title>Cron</title>
<polygon fill="none" stroke="black" points="80,-247.75 26,-247.75 26,-211.75 80,-211.75 80,-247.75"/>
<text text-anchor="middle" x="53" y="-225.07" font-family="Times,serif" font-size="14.00">Cron</text>
</g>
<!-- Cron&#45;&gt;BillingCommander -->
<g id="edge5" class="edge">
<title>Cron&#45;&gt;BillingCommander</title>
<path fill="none" stroke="darkorange" stroke-dasharray="5,2" d="M60.34,-211.38C67.72,-195.8 80.49,-173.28 97.75,-159.25 103.81,-154.32 110.65,-150.03 117.79,-146.31"/>
<polygon fill="darkorange" stroke="darkorange" points="119.15,-149.06 126.65,-141.59 116.12,-142.75 119.15,-149.06"/>
<text text-anchor="middle" x="138.12" y="-171.82" font-family="Times,serif" font-size="14.00" fill="darkorange">Day Closed</text>
</g>
<!-- Auth -->
<g id="node9" class="node">
<title>Auth</title>
<polygon fill="none" stroke="black" points="427,-371.5 373,-371.5 373,-335.5 427,-335.5 427,-371.5"/>
<text text-anchor="middle" x="400" y="-348.82" font-family="Times,serif" font-size="14.00">Auth</text>
</g>
<!-- Auth&#45;&gt;TaskCommander -->
<g id="edge7" class="edge">
<title>Auth&#45;&gt;TaskCommander</title>
<path fill="none" stroke="darkorange" stroke-dasharray="5,2" d="M390.05,-335.26C378.88,-316.78 359.47,-287.21 338,-265.75 334.13,-261.88 329.78,-258.12 325.33,-254.6"/>
<polygon fill="darkorange" stroke="darkorange" points="327.82,-251.34 317.71,-248.14 323.62,-256.94 327.82,-251.34"/>
<text text-anchor="middle" x="434.62" y="-286.95" font-family="Times,serif" font-size="14.00" fill="darkorange">Bird Registered</text>
</g>
<!-- A -->
<g id="node10" class="node">
<title>A</title>
</g>
<!-- B -->
<g id="node11" class="node">
<title>B</title>
</g>
<!-- A&#45;&gt;B -->
<g id="edge10" class="edge">
<title>A&#45;&gt;B</title>
<path fill="none" stroke="darkorange" stroke-dasharray="5,2" d="M585.22,-345.08C571.52,-339.78 556.07,-331.12 548,-317.5 536.27,-297.72 536.27,-285.53 548,-265.75 554.18,-255.32 564.69,-247.8 575.42,-242.47"/>
<polygon fill="darkorange" stroke="darkorange" points="576.47,-245.39 584.22,-238.17 573.65,-238.98 576.47,-245.39"/>
<text text-anchor="middle" x="569" y="-286.95" font-family="Times,serif" font-size="14.00" fill="darkorange">Event</text>
</g>
<!-- A&#45;&gt;B -->
<g id="edge11" class="edge">
<title>A&#45;&gt;B</title>
<path fill="none" stroke="green" d="M612,-335.57C612,-315.58 612,-282.05 612,-258.31"/>
<polygon fill="green" stroke="green" points="615.5,-258.54 612,-248.54 608.5,-258.54 615.5,-258.54"/>
<text text-anchor="middle" x="630" y="-295.57" font-family="Times,serif" font-size="14.00" fill="green">Sync</text>
<text text-anchor="middle" x="630" y="-278.32" font-family="Times,serif" font-size="14.00" fill="green">Read</text>
</g>
<!-- A&#45;&gt;B -->
<g id="edge12" class="edge">
<title>A&#45;&gt;B</title>
<path fill="none" stroke="deepskyblue" d="M635.69,-335.57C641.07,-330.44 646.06,-324.32 649,-317.5 658.1,-296.38 658.1,-286.87 649,-265.75 647.49,-262.23 645.42,-258.9 643.04,-255.8"/>
<polygon fill="deepskyblue" stroke="deepskyblue" points="645.99,-253.74 636.69,-248.68 640.81,-258.44 645.99,-253.74"/>
<text text-anchor="middle" x="691" y="-295.57" font-family="Times,serif" font-size="14.00" fill="deepskyblue">Sync</text>
<text text-anchor="middle" x="691" y="-278.32" font-family="Times,serif" font-size="14.00" fill="deepskyblue">Command</text>
</g>
</g>
</svg>
